<?xml version="1.0" encoding="utf-8"?>
<!-- Svg Vector Icons : http://www.onlinewebfonts.com/icon -->
<!DOCTYPE svg PUBLIC "-//W3C//DTD SVG 1.1//EN" "http://www.w3.org/Graphics/SVG/1.1/DTD/svg11.dtd">
<svg version="1.1" xmlns="http://www.w3.org/2000/svg" xmlns:xlink="http://www.w3.org/1999/xlink" x="0px" y="0px" viewBox="0 0 1000 1000" enable-background="new 0 0 1000 1000" xml:space="preserve">

<g><g transform="translate(0.000000,511.000000) scale(0.100000,-0.100000)"><path d="M3830.3,4984.9c-227.4-12.8-592.8-38.3-807.4-58.8c-347.5-30.7-411.4-43.4-528.9-107.3c-153.3-84.3-286.2-247.8-332.1-411.4c-17.9-63.9-25.6-204.4-17.9-334.7c12.8-260.6,74.1-398.6,250.4-549.3c161-138,222.3-145.6,1045-145.6h743.5v-669.4c0-620.9,5.1-679.6,53.7-786.9c28.1-63.9,81.8-148.2,120.1-189.1c79.2-81.8,296.4-194.2,383.3-194.2c56.2,0,56.2-5.1,56.2-347.5v-350L5028.6,603l232.5-235l-518.7-265.7c-436.9-219.7-526.3-273.4-544.2-332.1c-53.7-155.8-12.8-194.2,475.2-442c250.4-125.2,454.8-235.1,454.8-242.7c0-7.7-204.4-115-454.8-242.7c-488-247.8-528.9-286.2-475.2-439.5c17.9-58.8,99.6-109.9,475.2-301.5c250.4-125.2,454.8-235.1,454.8-242.7c0-7.7-204.4-115-454.8-242.7c-488-247.8-528.9-286.2-475.2-439.5c17.9-61.3,107.3-115,544.2-334.7l518.7-265.7l-232.5-235.1l-232.5-237.6V-4277c0-421.6,17.9-477.8,150.7-508.4c81.8-17.9,173.8,17.9,224.9,86.9c20.4,25.5,30.6,143.1,33.2,334.7v291.3l306.6,309.1c324.5,329.6,357.7,390.9,270.8,511c-20.4,28.1-232.5,148.2-472.7,268.3c-240.2,117.5-436.9,222.3-436.9,229.9c0,7.7,204.4,117.5,454.8,242.7c488,247.8,528.9,286.2,475.2,442c-17.9,56.2-99.6,107.3-475.2,298.9c-250.4,127.7-454.8,235.1-454.8,242.7s204.4,117.5,454.8,242.7c375.6,191.6,457.4,242.7,475.2,298.9c53.7,155.8,12.8,194.2-475.2,442c-250.4,127.8-454.8,235.1-454.8,242.7c0,7.7,196.7,112.4,436.9,230c641.3,319.4,646.4,329.6,201.9,779.3L5204.9,1017v260.6c0,253,2.5,260.6,58.8,260.6c84.3,0,301.5,112.4,380.7,194.2c38.3,40.9,92,125.2,120.1,189.1c48.6,107.3,53.7,166.1,53.7,786.9v669.4h743.5c822.7,0,884.1,7.7,1045,145.6c178.8,153.3,240.2,288.7,250.4,559.5c17.9,370.5-84.3,590.2-342.4,740.9c-97.1,58.8-163.5,71.5-516.1,102.2C6009.7,5010.4,4788.4,5033.4,3830.3,4984.9z M6546.3,4553.1c212.1-17.9,485.4-43.4,613.2-58.8c278.5-35.8,293.8-56.2,293.8-370.5c0-191.6-5.1-217.2-63.9-273.4l-61.3-63.9H5000.5H2672.9l-61.3,63.9c-58.8,56.2-63.9,81.8-63.9,278.5c0,189.1,7.7,224.8,58.8,281c63.9,74.1,84.3,79.2,554.4,117.5C4085.8,4606.7,5698,4617,6546.3,4553.1z M5409.3,2713.5c0-825.3,30.7-766.5-408.8-766.5c-439.5,0-408.8-58.8-408.8,766.5v664.3h408.8h408.8V2713.5z"/></g></g>
</svg>