<?xml version="1.0" encoding="utf-8"?>
<!-- Svg Vector Icons : http://www.onlinewebfonts.com/icon -->
<!DOCTYPE svg PUBLIC "-//W3C//DTD SVG 1.1//EN" "http://www.w3.org/Graphics/SVG/1.1/DTD/svg11.dtd">
<svg version="1.1" xmlns="http://www.w3.org/2000/svg" xmlns:xlink="http://www.w3.org/1999/xlink" x="0px" y="0px" viewBox="0 0 1000 1000" enable-background="new 0 0 1000 1000" xml:space="preserve">
<metadata> Svg Vector Icons : http://www.onlinewebfonts.com/icon </metadata>
<g><g transform="translate(0.000000,511.000000) scale(0.100000,-0.100000)"><path d="M6923.5,4964c-16.7-27.1-35.5-68.9-43.8-94c-10.4-35.5-29.3-48-71-48c-73.1,0-87.7-18.8-156.7-185.9c-52.2-129.5-50.1-194.3,6.3-215.1c20.9-6.3-298.7-812.5-405.2-1019.3c-144.1-284.1-386.4-564-635-731.1c-73.1-48-250.6-144.1-392.7-211c-142-68.9-315.4-160.8-384.3-208.9c-256.9-173.4-499.2-426.1-635-658l-79.4-133.7H2898.5c-1088.2,0-1230.3-4.2-1259.5-33.4c-56.4-54.3-37.6-100.3,98.2-250.7C2177.9,686.3,2476.6,120.2,2604-462.5c87.7-401.1,91.9-474.2,98.2-1915.4c8.4-1558.2,4.2-1506,150.4-1785.9c144.1-275.7,488.8-536.8,789.5-597.4c62.7-14.6,614.1-25.1,1399.5-27.1c1288.8-4.2,1297.1-4.2,1435,41.8c363.4,121.1,651.7,421.9,781.2,816.7c33.4,104.4,37.6,244.4,50.1,1618.8c12.5,1457.9,14.6,1510.2,60.6,1723.2c135.8,639.2,463.7,1284.6,879.4,1739.9c150.4,165,171.3,217.2,112.8,273.6c-27.2,29.2-108.6,33.4-557.7,33.4h-526.4l-79.4,204.7c-112.8,294.5-146.2,459.5-144.1,718.5c4.2,390.6,33.4,505.5,319.6,1203.1c146.2,359.3,192.2,453.3,221.4,449.1c66.8-6.3,106.5,33.4,160.8,171.3c64.7,162.9,66.8,188,12.5,225.6c-39.7,27.2-39.7,33.4-8.4,108.6c58.5,142,48.1,152.5-361.4,319.6c-204.7,81.5-388.5,150.4-407.3,150.4C6969.5,5010,6940.3,4989.1,6923.5,4964z M7566.9,4552.6c-8.4-18.8-25.1-68.9-35.5-110.7c-18.8-66.8-16.7-83.5,16.7-121.1c20.9-23,33.4-48,25.1-54.3c-8.4-10.4-499.2,179.6-693.5,267.4c-71,31.3-64.7,54.3,16.7,62.7c56.4,6.3,73.1,20.9,112.8,104.4l48,98.2l261.1-106.5C7533.5,4606.9,7579.4,4579.7,7566.9,4552.6z M7119.9,4216.3c119.1-48,225.6-91.9,234-96.1c8.3-4.2-75.2-227.7-183.8-495C6957,3103,6892.2,2892,6875.5,2656l-12.5-152.5h-129.5c-71,0-175.5,14.6-229.8,31.3c-121.1,35.5-296.6,152.5-359.3,238.1l-46,60.6l73.1,83.5c156.7,183.8,294.5,440.7,488.8,919c108.6,267.4,206.8,482.5,219.3,476.2C6890.1,4308.2,6998.7,4264.3,7119.9,4216.3z M6286.5,2436.7c144.1-73.1,332.1-121.1,467.9-121.1h106.5l23-185.9c18.8-152.5,112.8-480.4,181.7-632.9c16.7-35.5-56.4-37.6-1355.6-37.6c-1090.3,0-1368.1,6.3-1355.6,27.1c110.7,192.2,363.4,465.8,551.4,593.2c52.2,35.5,240.2,135.8,417.8,221.4c196.3,96.1,384.3,206.8,478.3,279.9l156.7,121.1l106.5-104.4C6123.6,2541.1,6223.8,2468,6286.5,2436.7z M8009.7,1183.4c-104.4-131.6-380.1-549.3-451.2-689.3l-73.1-142H5008.2H2528.8l-129.5,231.8c-71,127.4-204.7,330-294.5,449.1l-165,217.2h3062.1h3064.2L8009.7,1183.4z M7345.5-7.2c-77.3-217.2-131.6-415.6-175.4-643.3c-29.2-150.4-37.6-401.1-48.1-1681.4l-14.6-1503.9l-48.1-133.7c-104.4-279.9-359.2-522.2-635-601.6c-121.2-35.5-225.6-37.6-1466.3-27.1l-1336.8,10.4l-165,79.4c-192.2,91.9-367.6,259-457.4,434.5c-114.9,229.8-119.1,284.1-119.1,1742c0,1063.2-6.3,1380.7-31.3,1554c-35.5,240.2-106.5,538.9-188,772.8c-29.2,85.6-52.2,158.8-52.2,162.9c0,4.2,1079.9,6.3,2400,6.3h2397.9L7345.5-7.2z"/><path d="M3648.4-1049.4c-52.2-29.3-50.1-135.8,2.1-165c23-10.4,75.2-20.9,114.9-20.9h75.2v-307.1c0-202.6,10.4-348.8,31.3-424c98.2-373.9,382.2-683,756.1-829.2c123.2-48,173.4-56.4,382.2-56.4c198.4,0,263.2,8.4,371.8,45.9c401,142.1,697.7,472.1,789.5,875.2c18.8,77.3,41.8,162.9,52.2,190.1c10.4,27.2,18.8,150.4,18.8,275.7c0,217.2,2.1,229.7,43.9,229.7c77.3,0,123.2,39.7,123.2,106.5c0,46-12.5,66.8-54.3,81.5c-29.3,12.5-240.2,20.9-470,20.9c-388.5,0-417.7-2.1-457.4-41.8c-50.1-50.1-50.1-60.6-8.3-121.2c25-35.5,52.2-46,125.3-46h91.9V-1532c0-254.8-6.3-313.3-43.8-392.7c-66.8-150.4-135.8-221.4-271.5-290.3c-106.5-52.2-154.6-64.8-269.5-64.8c-263.2,0-449.1,110.7-557.7,330c-54.3,110.7-58.5,142.1-66.8,417.8l-6.3,296.6h73.1c54.3,0,83.5,12.5,106.5,46c41.8,60.6,41.8,71-8.4,121.2c-39.7,39.7-68.9,41.8-474.2,41.8C3861.4-1026.5,3669.3-1036.9,3648.4-1049.4z M4262.5-1563.3c6.3-309.1,10.4-336.3,62.7-447c79.4-158.8,227.7-305,392.7-382.3c121.1-58.5,156.7-64.7,323.8-64.7c160.8,0,204.7,8.4,307.1,56.4c167.1,77.3,317.5,223.5,398.9,390.6c64.8,133.7,66.8,144.1,73.1,455.3l8.4,319.6h114.9h112.8l-8.4-192.2c-18.8-386.4-75.2-641.2-181.7-800c-23-33.4-87.7-110.7-146.2-169.2c-384.3-388.5-1042.3-376-1430.8,25.1c-200.5,206.8-279.9,463.7-282,923.2v213h123.2h123.2L4262.5-1563.3z"/></g></g>
</svg>