<?xml version="1.0" encoding="utf-8"?>
<!-- Svg Vector Icons : http://www.onlinewebfonts.com/icon -->
<!DOCTYPE svg PUBLIC "-//W3C//DTD SVG 1.1//EN" "http://www.w3.org/Graphics/SVG/1.1/DTD/svg11.dtd">
<svg version="1.1" xmlns="http://www.w3.org/2000/svg" xmlns:xlink="http://www.w3.org/1999/xlink" x="0px" y="0px" viewBox="0 0 1000 1000" enable-background="new 0 0 1000 1000" xml:space="preserve">
<metadata> Svg Vector Icons : http://www.onlinewebfonts.com/icon </metadata>
<g><g transform="translate(0.000000,512.000000) scale(0.100000,-0.100000)"><path d="M3659.1,4884.1c-99.5-74.6-185.6-145.5-189.5-155c-3.8-11.5,23-51.7,59.3-89.9c264.1-279.4,668-891.9,876.6-1330.2c76.6-156.9,325.4-750.2,325.4-771.3c0-1.9-42.1-19.1-93.8-36.4c-137.8-45.9-302.4-158.8-428.7-294.7l-111-120.6l-109.1,57.4c-174.2,91.9-315.8,126.3-520.6,124.4c-298.6-1.9-541.6-107.2-748.3-325.4c-189.5-199-283.3-417.2-296.7-692.8l-7.7-160.8l-99.5-40.2c-294.7-120.6-535.9-400-618.2-713.9c-36.3-141.6-36.3-388.5,0-532.1c84.2-319.6,363.6-629.7,660.3-727.3l93.8-30.6l-11.5-185.7c-19.1-327.3,78.5-589.5,308.1-819.1c103.3-105.3,172.2-153.1,292.8-210.5l156.9-74.6l1.9-183.7c0-451.7,246.9-813.4,666-985.6c105.3-44,109.1-45.9,99.5-107.2c-17.2-120.5-9.6-369.4,17.2-465c101.4-371.3,419.1-677.5,788.5-765.6c562.7-132.1,1127.3,220.1,1272.7,794.3c24.9,93.8,28.7,172.2,21.1,319.6c-9.6,170.4-7.7,197.1,19.1,197.1c67,0,289,130.1,401.9,235.4c231.6,218.2,336.8,453.6,338.8,769.4l1.9,191.4l162.7,80.4c271.8,132.1,447.9,334.9,547.4,629.7c44,134,49.8,174.2,42.1,367.5l-5.7,216.3l109.1,44c210.5,86.1,415.3,273.7,528.2,484.2c287.1,541.6,36.4,1242.1-528.2,1471.8l-103.4,42.1l-5.7,158.9c-13.4,357.9-210.5,690.9-516.7,874.6c-313.9,189.5-712,197.1-1046.9,19.1l-109.1-57.4l-111,120.6c-189.5,204.8-419.1,325.4-677.5,354.1l-109.1,11.5l-61.3,223.9c-80.4,285.2-231.6,712-325.4,914.8l-72.7,156.9l67,13.4c68.9,13.4,532.1-15.3,549.3-32.5c5.8-5.7-11.5-65.1-40.2-132.1c-61.2-155-67-327.3-17.2-478.5c53.6-155,271.8-365.6,490-472.7c447.9-218.2,1416.3-290.9,1645.9-122.5c67,47.8,68.9,88,11.5,174.2c-26.8,42.1-49.8,78.5-49.8,84.2c0,3.8,45.9,9.6,101.4,15.3c122.5,9.6,273.7,78.5,430.6,193.3c67,47.8,195.2,132.1,289,183.7c210.5,120.6,243,155,210.5,216.3c-13.4,24.9-101.5,126.3-197.1,227.8c-95.7,101.4-225.8,239.2-289,308.1c-63.2,67-134,135.9-158.9,151.2l-42.1,26.8l57.4,86.1c30.6,47.8,57.4,99.5,57.4,116.7c0,118.7-534,413.4-953.1,528.2c-258.4,70.8-579.9,74.6-788.5,9.6c-210.5-67-352.1-149.3-467-273.7c-151.2-162.7-210.5-296.6-220.1-490c-1.9-88-7.7-158.9-11.5-158.9c-3.8,0-103.3,17.2-223.9,36.4c-118.6,21.1-298.6,44-400,51.7l-181.8,11.5l-101.4,181.8c-111,197.1-331.1,532.1-417.2,633.5l-53.6,63.2L3659.1,4884.1z M6482.1,4700.4c24.9-9.6,13.4-24.9-51.7-67c-91.9-61.2-86.1-63.1,99.5-34.4c181.8,26.8,312,0,549.3-120.6l197.1-97.6L7174.9,4264c-68.9-76.6-143.5-135.9-225.8-178l-122.5-63.2l95.7,13.4c53.6,9.6,164.6,15.3,248.8,15.3c181.8,0,199.1-9.6,363.6-216.3c116.7-143.5,210.5-237.3,294.7-292.8l47.9-28.7l-132.1-61.2c-70.8-34.5-204.8-109.1-294.7-166.5c-201-126.3-310-156.9-436.4-126.3c-91.9,23-319.6,139.7-340.7,174.2c-5.7,11.5-19.1,19.1-28.7,19.1s11.5-42.1,47.9-95.7c34.4-51.7,78.5-139.7,95.7-195.2c19.1-55.5,45.9-124.4,59.3-153.1c24.9-49.8,24.9-49.8-51.7-63.2c-218.2-36.4-595.2,63.2-750.2,201c-67,57.4-70.8,59.3-70.8,19.1c0-23,9.6-59.3,21-80.4c21.1-38.3,17.2-38.3-51.7-26.8c-179.9,32.5-445.9,199-524.4,327.3c-86.1,137.8-51.7,313.9,95.7,497.6c47.9,61.3,57.4,88,47.9,134c-26.8,130.1-32.5,315.8-9.6,380.9c30.6,95.7,179.9,254.6,290.9,310.1c49.7,24.9,141.6,59.3,202.9,72.7C6162.4,4709.9,6426.6,4721.4,6482.1,4700.4z M5314.6,2189.4c325.4-153.1,493.8-511,413.4-876.6c-23-97.6-26.8-103.3-93.8-112.9c-220.1-38.3-375.1-103.3-534-223.9l-101.4-76.6l-99.5,76.6c-160.8,120.6-317.7,185.7-535.9,222c-65.1,11.5-70.8,19.1-88,103.3c-36.4,162.7-38.3,202.9-21,319.6c47.8,294.7,277.5,547.4,566.5,622C4956.7,2277.4,5176.8,2252.5,5314.6,2189.4z M3611.2,1954c107.2-19.1,245-78.5,321.5-135.9c32.5-24.9,34.5-40.2,17.2-162.7c-19.1-128.2-7.7-304.3,24.9-430.6c11.5-45.9,7.7-53.6-42.1-65.1c-93.8-23-267.9-118.7-377-208.6c-59.3-47.8-112.9-86.1-118.7-86.1s-38.3,23-70.8,49.8c-132.1,111-417.2,216.3-585.6,218.2h-65.1l13.4,122.5c23,235.4,130.1,434.5,298.6,556.9C3217,1952,3395,1994.1,3611.2,1954z M6763.4,1927.2c277.5-97.6,472.7-356,505.3-667.9l13.4-126.3H7217c-168.4-1.9-453.6-107.2-585.7-218.2c-32.5-26.8-65.1-49.8-70.8-49.8c-5.7,0-59.3,38.3-118.6,86.1c-111,90-235.4,160.8-357.9,201c-65.1,19.1-72.7,28.7-59.3,65.1c7.7,21.1,15.3,164.6,17.2,315.8l1.9,275.6l101.4,57.4C6338.5,1975,6562.5,1996.1,6763.4,1927.2z M4566.3,819c74.6-36.4,160.8-91.9,191.4-124.4l55.5-57.4l-42.1-101.4c-93.8-235.4-97.6-499.5-11.5-748.3l47.8-137.8l-63.1-63.2c-32.5-34.5-116.7-91.9-185.7-124.4c-114.8-57.4-137.8-61.2-315.8-61.2s-201,3.8-319.6,63.1c-162.7,80.4-283.3,201-363.6,363.6c-57.4,116.8-63.2,141.6-63.2,310.1c1.9,246.9,49.8,369.4,208.6,526.3c178,178,348.3,245,583.7,231.6C4403.6,887.9,4459.1,872.6,4566.3,819z M5913.6,884.1c143.5-34.5,258.4-99.5,378.9-220.1c158.9-156.9,206.7-279.4,208.6-526.3c0-168.4-5.7-193.3-61.3-308.1c-80.4-160.8-206.7-287.1-365.5-365.6c-118.7-59.3-141.6-63.1-319.6-63.1s-201,3.8-319.6,63.1c-160.8,78.5-319.6,245-380.9,400c-34.4,86.1-44,149.3-45.9,283.3c0,153.1,7.7,185.7,61.2,300.5c76.6,162.7,185.6,281.3,329.2,356C5574.9,897.5,5739.5,924.3,5913.6,884.1z M3054.3,742.5c74.6-36.4,155-86.1,179.9-111l42.1-45.9l-40.2-103.3c-49.8-130.1-68.9-392.3-38.3-534c11.5-55.5,44-156.9,70.8-225.8l49.8-124.4l-63.1-67c-36.4-36.3-126.3-95.7-199.1-132c-382.8-189.5-828.7-34.5-1010.5,352.1c-55.5,116.8-61.3,145.5-61.3,319.6c0,174.2,5.7,202.9,61.3,319.6c67,141.6,168.4,254.5,304.3,333c134,78.5,245,105.3,417.2,95.7C2891.6,811.4,2941.4,799.9,3054.3,742.5z M7592.1,752c162.7-80.4,285.2-202.9,359.8-361.7c55.5-116.7,61.2-143.5,61.2-319.6c0-174.2-5.7-202.9-59.3-315.8c-185.6-390.4-627.8-545.5-1012.4-356c-72.7,36.3-162.7,95.7-199.1,132l-63.2,67l49.8,124.4c26.8,68.9,59.3,170.3,70.8,225.8c28.7,135.9,11.5,382.8-36.3,524.4l-40.2,114.8l40.2,42.1c49.7,51.7,237.3,153.1,333,178c42.1,9.6,141.6,15.3,225.8,11.5C7440.9,813.3,7496.4,799.9,7592.1,752z M5081.1-671.9c168.4-135.9,298.6-193.3,520.6-231.6c153.1-26.8,156.9-34.5,160.8-235.4c5.8-296.7-174.2-574.2-449.8-698.6c-130.1-57.4-390.4-70.8-528.2-26.8c-308.1,99.5-520.6,386.6-522.5,710.1c0,210.5,9.6,231.6,126.3,246.9c185.6,24.9,486.1,166.5,572.2,269.9C4991.2-599.2,4989.2-599.2,5081.1-671.9z M3647.6-733.1c68.9-45.9,172.3-99.6,229.7-116.8l103.3-32.5l-11.5-68.9c-7.7-38.3-13.4-124.4-13.4-193.3c0-68.9,5.7-155,13.4-193.3l11.5-68.9l-99.5-30.6c-197.1-63.2-447.9-279.4-564.6-488c-13.4-24.9-36.4-19.1-141.6,30.6c-246.9,114.8-407.7,350.3-428.7,620.1c-5.7,76.6-1.9,170.3,7.7,206.7c17.2,63.1,24.9,68.9,122.5,88c227.7,45.9,379,114.8,534,245c57.4,47.8,107.2,88,107.2,88C3519.4-647,3576.8-685.3,3647.6-733.1z M6585.4-737c141.6-116.7,348.3-210.5,526.3-239.2l143.5-21l13.4-86.1c38.3-254.6-36.4-489.9-210.5-666c-82.3-80.4-277.5-199-331.1-199c-7.6,0-36.3,36.3-61.3,80.4c-99.5,174.2-319.6,357.9-516.7,426.8l-95.7,36.4l11.5,181.8c5.7,101.4,1.9,220.1-9.6,264.1l-17.2,78.5l109.1,40.2c59.3,23,155,74.6,212.4,116.8c57.4,40.2,107.2,74.6,111,76.5C6474.4-647,6526.1-687.2,6585.4-737z M4143.3-1755.2c55.5-95.7,256.5-264.1,398.1-334.9c74.6-38.3,147.4-68.9,158.8-68.9c13.4,0,21-80.4,21-252.7c1.9-227.7,5.7-267.9,51.7-384.7l49.8-128.2l-67-65.1c-145.4-141.6-405.7-220.1-616.3-185.6c-241.2,38.3-468.9,210.5-570.4,430.6c-47.8,105.3-53.6,137.8-53.6,317.7c0,178,5.7,214.3,51.7,310c68.9,147.4,204.8,289,346.4,359.8C4059.1-1684.3,4101.2-1684.3,4143.3-1755.2z M6085.9-1747.5c315.8-147.4,499.5-516.8,417.2-844c-76.6-312-302.4-526.3-616.3-583.7c-313.9-57.4-667.9,134-807.6,438.2c-38.3,82.3-51.7,147.4-57.4,271.8c-9.6,214.3,11.5,267.9,101.4,267.9c97.6,0,338.8,84.2,455.5,160.8c109.1,68.9,212.4,166.5,292.8,269.9C5930.9-1688.2,5951.9-1684.3,6085.9-1747.5z M5341.4-3399.2c55.5-24.9,151.2-53.6,210.5-65.1c59.3-11.5,126.3-22.9,149.3-26.8c91.9-17.2,84.2-359.8-13.4-557c-76.6-153.1-246.9-312-396.2-369.4c-390.4-149.3-788.5,15.3-970.3,400c-53.6,112.9-59.3,145.4-59.3,300.5c0,197.1,19.1,237.3,112.9,237.3c143.5,0,421.1,116.7,555,233.5l76.6,65.1l114.8-86.1C5186.4-3316.9,5284-3376.2,5341.4-3399.2z"/></g></g>
</svg>