<?xml version="1.0" encoding="utf-8"?>
<!-- Svg Vector Icons : http://www.onlinewebfonts.com/icon -->
<!DOCTYPE svg PUBLIC "-//W3C//DTD SVG 1.1//EN" "http://www.w3.org/Graphics/SVG/1.1/DTD/svg11.dtd">
<svg version="1.1" xmlns="http://www.w3.org/2000/svg" xmlns:xlink="http://www.w3.org/1999/xlink" x="0px" y="0px" viewBox="0 0 1000 1000" enable-background="new 0 0 1000 1000" xml:space="preserve">
<metadata> Svg Vector Icons : http://www.onlinewebfonts.com/icon </metadata>
<g><g><g><g><path d="M990,531.4l-79.9-90.8l48.5-98.2l-97.6-48.1l7.6-118.5l-121-7.8L711,59.8L606.4,95.3l-75-85.2L443,87.8L336.1,35L285,138.4l-109.2-7l-7.2,112.2l-115.2,39l38.6,114l-82,72.1l71.6,81.5L28.6,657.6l110,54.3l-7.2,112.4l107.9,6.9l37,109l114.6-38.8l77.9,88.6l83.8-73.7l98.7,48.8l51.4-104.2l121.7,7.8l7.5-116.7l102-34.6l-35.7-105.3L990,531.4z M802.3,729.4l-6.8,106.5L684,828.8l-46.9,95l-89.6-44.2l-76.1,67l-71.1-80.9l-104.8,35.5l-33.7-99.4l-97.7-6.3l6.5-102.2L69.9,643.6l48.6-98.3l-64.9-73.8l74.3-65.3L92.5,301.9L198,266.1l6.5-102.1l99,6.3L350,76.3l97.8,48.3l80.8-71.1l68.2,77.5l95-32.2l33.4,98.5l110.8,7.1L829,312.8l88.4,43.7l-44,89l73.1,83.2l-84.1,74l32.4,95.5L802.3,729.4z"/></g><g><path d="M614.1,464.4c-45.9,0-83.9,39-83.9,109c0.5,69.5,37.9,104.2,81.2,104.2c44.4,0,82.8-36.3,82.8-109.6C694.3,501.8,662.8,464.4,614.1,464.4z M612.6,649.4c-28.9,0-46-33.7-45.4-78c0-43.8,16-78.6,45.4-78.6c32.6,0,44.9,35.3,44.9,77.5C657.4,616.2,643.6,649.4,612.6,649.4z"/></g><g><path d="M468.3,424.4c0-66.3-32.1-103.7-80.7-103.7c-46,0-83.9,39-83.9,108.5c0.5,70,37.9,104.7,81.2,104.7C429.8,533.9,468.3,497.6,468.3,424.4z M341.1,427.6c0-43.8,15.5-78.6,44.9-78.6c32.6,0,44.9,35.3,44.9,77.5c0,45.9-13.9,79.1-44.9,79.1C356.6,505.6,340,471.9,341.1,427.6z"/></g><g><polygon points="585.8,320.7 381.7,679.8 411.6,679.8 615.8,320.7 "/></g></g></g><g></g><g></g><g></g><g></g><g></g><g></g><g></g><g></g><g></g><g></g><g></g><g></g><g></g><g></g><g></g></g>
</svg>