<?xml version="1.0" encoding="utf-8"?>
<!-- Svg Vector Icons : http://www.onlinewebfonts.com/icon -->
<!DOCTYPE svg PUBLIC "-//W3C//DTD SVG 1.1//EN" "http://www.w3.org/Graphics/SVG/1.1/DTD/svg11.dtd">
<svg version="1.1" xmlns="http://www.w3.org/2000/svg" xmlns:xlink="http://www.w3.org/1999/xlink" x="0px" y="0px" viewBox="0 0 1000 1000" enable-background="new 0 0 1000 1000" xml:space="preserve">

<g><g transform="translate(0.000000,511.000000) scale(0.100000,-0.100000)"><path d="M525.2,3750.2c-143.7-49.8-249.1-124.6-314.3-228c-120.7-189.7-113.1,23-109.2-3453.3l5.7-3171.6l49.8-105.4c70.9-153.3,138-220.4,281.7-291.3l128.4-63.2h4436.4h4436.4l128.4,63.2c143.7,70.9,210.8,138,281.7,291.3l49.8,105.4V107.2v3209.9l-63.2,128.4c-70.9,143.7-138,210.8-291.3,281.7l-105.4,49.8l-4407.6,3.8C835.7,3784.7,621,3784.7,525.2,3750.2z M9461.2,3430.2c118.8-88.1,132.2-124.6,138-389l7.7-245.3L7305.3,1086.5L5003.7-622.9L2704.1,1086.5L404.5,2794v216.5c0,230,15.3,297,82.4,371.8c93.9,101.6-176.3,95.8,4539.8,92l4382.7-3.8L9461.2,3430.2z M2690.7,712.8C4664.5-755.1,4944.3-956.3,5003.7-956.3c59.4,0,339.2,201.2,2311.1,1669.1C8549,1630.7,9568.5,2387.7,9581.9,2395.4c15.3,9.6,21.1-561.5,21.1-2267v-2280.5l-1345.3,971.6c-956.2,688-1364.5,971.6-1408.5,977.3c-105.4,13.4-189.7-107.3-147.6-214.6c5.8-15.3,661.1-496.3,1456.4-1069.3l1446.8-1040.6l-5.7-272.1c-5.7-295.1-17.2-325.8-138-415.9l-51.7-40.2H5003.7H598l-51.7,40.2c-120.7,90.1-132.2,120.7-138,415.9l-5.8,272.1l1446.8,1040.6c795.3,573,1450.7,1054,1456.4,1069.3c42.2,107.3-42.2,228.1-147.6,214.6c-44.1-5.8-448.4-285.5-1406.6-977.3L404.5-2152.1V128.3c0,1627,5.7,2276.6,21.1,2269C437.1,2389.6,1456.6,1632.7,2690.7,712.8z"/></g></g>
</svg>