<?xml version="1.0" encoding="utf-8"?>
<!-- Svg Vector Icons : http://www.onlinewebfonts.com/icon -->
<!DOCTYPE svg PUBLIC "-//W3C//DTD SVG 1.1//EN" "http://www.w3.org/Graphics/SVG/1.1/DTD/svg11.dtd">
<svg version="1.1" xmlns="http://www.w3.org/2000/svg" xmlns:xlink="http://www.w3.org/1999/xlink" x="0px" y="0px" viewBox="0 0 1000 1000" enable-background="new 0 0 1000 1000" xml:space="preserve">
<metadata> Svg Vector Icons : http://www.onlinewebfonts.com/icon </metadata>
<g><g transform="translate(0.000000,512.000000) scale(0.100000,-0.100000)"><path d="M2704.5,4981.7c-84.2-45.9-143.5-135.9-160.8-248.8c-7.7-47.8-26.8-107.2-44-134c-45.9-70.8-44-468.9,3.8-541.6c49.8-74.6,45.9-600.9-7.7-960.7c-86.1-597.1-155-826.8-489.9-1645.9c-331.1-815.3-413.4-1083.2-495.7-1636.3c-28.7-193.3-34.4-451.6-40.2-2168.3c-5.7-1402.8-1.9-1978.9,13.4-2053.5c26.8-128.2,114.8-248.8,229.7-313.9l86.1-47.9l1316.7-5.7c855.5-3.8,1341.6,1.9,1389.4,15.3c112.9,30.6,225.8,122.5,279.4,229.6l47.8,93.8v1982.7c0,1259.3-7.7,2049.6-21.1,2168.3c-57.4,528.2-172.2,922.5-505.2,1735.8c-130.1,315.8-258.4,643-285.2,727.2c-156.9,491.8-260.3,1154-260.3,1653.5c0,134,7.7,174.2,38.3,212.4c32.5,42.1,38.3,78.5,38.3,283.2c0,200.9-5.7,245-36.4,287.1c-19.1,28.7-38.3,91.9-44,139.7c-11.5,111-59.3,178-160.8,227.7c-68.9,34.4-112.9,38.3-449.7,38.3C2817.4,5018.1,2767.7,5014.3,2704.5,4981.7z M3458.5,4608.5c5.7-59.3,23-120.6,40.2-139.7c45.9-49.8,44-227.7,0-277.5c-28.7-28.7-36.4-80.4-40.2-258.4c-13.4-436.3,47.8-976,168.4-1477.5c82.3-340.6,109.1-413.4,403.8-1142.5C4358,509.2,4461.4,145.6,4514.9-380.7l11.5-111H3158.1c-1289.9,0-1368.4,1.9-1368.4,34.5c1.9,88,59.3,459.3,103.3,656.4c67,292.8,141.6,512.9,356,1031.5c283.2,689,317.7,780.8,388.5,1043c149.3,545.4,204.8,951.2,204.8,1500.4c0,373.2-1.9,400-38.3,432.5c-28.7,24.9-38.3,59.3-38.3,124.4c0,65.1,9.6,99.5,38.3,124.4c30.6,26.8,38.3,59.3,38.3,147.4v111h304.3h304.3L3458.5,4608.5z M4526.4-1716.5v-918.6H3148.5H1770.6v918.6v918.6h1377.9h1377.9V-1716.5z M4526.4-3666.7v-727.2l-49.8-38.3c-49.8-40.2-65.1-40.2-1320.5-40.2H1887.3l-53.6,45.9l-53.6,45.9l-5.7,719.6l-5.7,719.6h1379.8h1377.9V-3666.7z"/><path d="M5896.7,842.2c-30.6-30.6-49.8-78.5-57.4-139.7c-24.9-202.9-49.8-593.3-68.9-1058.3c-21-526.3-7.6-731.1,59.3-976c135.9-499.5,522.5-897.6,985.6-1016.2c82.3-21,151.2-42.1,156.9-47.8c3.8-3.8,9.6-422.9,11.5-932c1.9-830.6-1.9-932-30.6-995.2c-57.4-128.2-216.3-193.3-574.1-233.5c-181.8-21-218.2-30.6-248.8-68.9c-40.2-49.7-44-97.6-11.5-130.1c32.5-32.5,2026.7-32.5,2059.2,0c32.5,32.5,28.7,80.4-11.5,130.1c-30.6,38.3-67,47.9-269.8,70.8c-260.3,28.7-424.9,82.3-501.4,158.8c-93.8,91.9-99.5,189.5-88,1136.8c5.7,470.8,15.3,861.2,19.1,865c3.8,3.8,72.7,24.9,155,45.9c239.2,61.3,398.1,155,595.2,352.1c269.8,271.7,405.7,568.4,447.8,985.6c26.8,245-17.2,1312.8-67,1712.8c-7.7,61.2-26.8,109.1-57.4,139.7l-44,44H7148.3H5940.7L5896.7,842.2z M8168.3,490.1c7.7-51.7,17.2-191.4,23-311.9c5.7-120.6,15.3-248.8,21-281.3l9.6-63.1H7148.3H6074.7l9.6,63.1c5.7,32.5,15.3,160.8,21,281.3c5.7,120.6,15.3,260.3,23,311.9l11.5,90h1008.6h1008.6L8168.3,490.1z M8227.7-642.9c51.7-692.8-266-1245.9-809.5-1406.6c-135.9-40.2-403.8-40.2-539.7,0C6338.8-1890.7,6015.3-1328,6067-639.1l13.4,166.5h1067.9h1066L8227.7-642.9z"/></g></g>
</svg>